<svg version="1.1" id="Layer_1" x="0" y="0" xml:space="preserve" width="1384.91" height="1362.6" xmlns:xlink="http://www.w3.org/1999/xlink" xmlns="http://www.w3.org/2000/svg"><style type="text/css" id="style4955">.st0{fill:#e8e8e4}.st2{fill:none}.st3{fill:#335e6f}.st5{fill:#00934a}.st6{fill:#949698}.st7{fill:#ffcd34}.st11{fill:#fbab18}.st12{fill:#eda70c}.st13{fill:#f7b719}.st14{fill:#fcc324}.st15{fill:#6f6a76}.st16{enable-background:new}.st17{fill:#d31b80}.st19{fill:#958d9c}.st20{fill:#c6becd}.st21{fill:#dbd9da}.st31{fill:#c60294}</style><g id="g5581" transform="translate(-267.5 -161.8)"><g id="g4959"><path class="st0" d="M995.6 1524.4c-82.1 0-161.8-15.1-237.3-45-38.9 12.5-76.6 19.9-112.2 22.1-7.1.4-14.1.6-21 .6-62.3 0-116.2-16.9-160.4-50.3-49.2-37.2-81.9-91.4-97.2-161-13.6-62-12.9-134 2.3-214 1.3-6.9 2.7-13.9 4.3-21.1-4.8-17-9-34.3-12.4-51.7a68.8 68.8 0 01-18.2-19.8l-65.5-106c-.1-.1-.2-.3-.3-.4-.2-.4-.5-.8-.7-1.2-10.7-18.7-12.5-41.5-4.7-62.5 6.8-18.4 20.2-34.3 37.7-44.6l28.5-16.8 153.7-419-9.9-17.1c-10.7-18.7-12.4-41.4-4.7-62.5 6.8-18.4 20.2-34.3 37.7-44.6 13.6-8 28.9-12.2 44.2-12.2 4.5 0 8.9.4 13.3 1.1 21.3 3.5 39.7 15.6 50.7 33.2.1.1 12.1 19.5 12.1 19.5l133 22c72.5-27.2 148.8-41 227-41h2.2c6-3.2 11.9-6.2 17.8-9.2 72.9-36.4 142-56.8 205.3-60.5 7.1-.4 14.2-.6 21-.6 62.3 0 116.2 16.9 160.4 50.3 49.2 37.2 81.9 91.4 97.2 161 7.6 34.4 10.7 72.2 9.4 112.6 9.6 12.6 18.9 25.6 27.6 38.9l6.3 1.4c.5.1 1 .2 1.4.3.5.1 1 .2 1.4.3l19.2 4.2c1.8.4 3.6.9 5.4 1.5 1.9.2 3.7.4 5.5.8l19.2 4.2c.5.1 1 .2 1.4.3.5.1 1 .2 1.4.3l19.2 4.2a45.08 45.08 0 0134.5 53.5l-11.5 53.2-5.8 27c-.1.5-.2 1-.4 1.5l-1.6 7.5-.3 1.4-1.7 7.7-.3 1.3-1.9 8.7c-.4 1.8-.9 3.6-1.5 5.3l-.4 1.8-.6 2.5c-.1.8-.3 1.7-.5 2.5l-1.8 8.4a648.7 648.7 0 0118.5 154.2c0 90-18.1 176.8-53.7 258.4 6.2 25.3 9.1 51.2 8.7 77.4-1.2 80.8-33.7 156.6-91.3 213.2-57.5 56.6-133.7 87.8-214.3 87.8h-4.8c-34.9-.5-68.8-6.9-101.1-18.8a659.87 659.87 0 01-189.5 27.8z" id="path4957"/></g><g id="g4963"><circle cx="995.6" cy="878.2" r="601.2" id="circle4961" fill="#0e2d6d"/></g><g id="g4967"><path class="st2" d="M1437.6 386.6c-12-54.5-36.7-96.2-73.5-124.1-32.9-24.9-73.9-37.5-122.2-37.5-5.6 0-11.4.2-17.2.5-54.4 3.2-114.8 21.2-179.5 53.4 159.1 13 300.6 87.8 400.5 200.5.8-33.5-1.9-64.5-8.1-92.8z" id="path4965"/></g><g id="g4971"><path class="st2" d="M432.2 1088.4v.1c-13.6 71.6-14.5 135-2.7 188.6 12 54.5 36.7 96.2 73.5 124.1 36.8 27.8 83.7 40.2 139.4 36.9 29.3-1.7 60.3-7.7 92.8-17.9-139.2-67-248.6-186-303-331.8z" id="path4969"/></g><g id="g4977"><g id="g4975"><path class="st0" d="M1434.6 594.2c1.3-6.2 2.6-12.3 3.7-18.3 6.4-33.8 10-66.2 10.8-96.3.9-33.7-1.9-65.3-8.1-93.7-12.2-55.3-37.4-97.8-74.8-126.1-33.5-25.3-75.3-38.2-124.3-38.2-5.7 0-11.6.2-17.4.5-54.6 3.2-115.2 21.2-180 53.3-7.4-.6-15-1.1-22.5-1.4 5.1-2.7 10.3-5.3 15.3-7.9 67-33.5 129.7-52.1 186.5-55.5 6.1-.4 12.2-.5 18.2-.5 51.5 0 95.6 13.6 131.1 40.5 39.7 30 66.3 74.7 79.1 132.8 7.7 34.9 10.2 74.1 7.5 116.5-1.6 24.8-5 51.1-10.1 78-1.2 6.5-2.6 13.3-4.1 20.2z" id="path4973"/></g></g><g id="g4983"><g id="g4981"><path class="st3" d="M1242 213.6c50.7 0 94.1 13.4 129 39.8 39 29.5 65.2 73.5 77.8 130.7 7.6 34.6 10.1 73.5 7.4 115.6-1.6 24.7-5 50.8-10 77.6-1 5.2-2.1 10.6-3.3 16.1l-4.2-1.6c1.1-5.2 2.1-10.4 3.1-15.4 6.4-34 10.1-66.6 10.9-96.9.9-34-1.9-65.8-8.2-94.5-12.4-56.2-38-99.3-76.1-128.1-34.1-25.8-76.6-38.9-126.4-38.9-5.8 0-11.7.2-17.6.5-54.8 3.2-115.6 21.1-180.5 53.2l-8.8-.6c1.3-.6 2.6-1.3 3.8-1.9 66.6-33.2 128.9-51.8 185.2-55.1 6-.3 12-.5 17.9-.5m0-7c-6 0-12.2.2-18.4.6-57.2 3.4-120.5 22.2-187.9 55.8-8.9 4.5-17.9 9.2-26.8 14.1 12.2.3 24.3.9 36.2 1.9 64.7-32.2 125.1-50.1 179.5-53.4 5.8-.3 11.6-.5 17.2-.5 48.2 0 89.2 12.6 122.2 37.5 36.8 27.8 61.5 69.6 73.5 124.1 6.2 28.3 8.9 59.3 8.1 92.8-.8 30-4.3 62-10.8 95.7-1.3 7-2.8 14.1-4.3 21.2l17.5 6.4c1.8-8.1 3.5-16.2 5-24.2 5.2-27.3 8.6-53.5 10.2-78.5 2.7-42.8.2-82.2-7.6-117.5-13-58.9-40-104.3-80.4-134.8-36.2-27.3-80.9-41.2-133.2-41.2z" id="path4979"/></g></g><g id="g5045"><g id="g5043"><defs id="defs4986"><circle id="SVGID_1_" cx="1291.1" cy="1209.2" r="260.7"/></defs><use xlink:href="#SVGID_1_" id="use4988" x="0" y="0" width="100%" height="100%" overflow="visible" fill="#1fc3f3"/><clipPath id="SVGID_2_"><use xlink:href="#SVGID_1_" id="use4990" x="0" y="0" width="100%" height="100%" overflow="visible"/></clipPath><g clip-path="url(#SVGID_2_)" id="g5041"><g id="g4999"><g id="g4997"><g id="g4995"><path class="st5" d="M1056.1 1371.4c12.1-5 12.6-6.5 17.2-13.4s14.6-10.3 19.7-15.7c5.1-5.4 6.7-8.9 7.9-15.9 1.2-7 .6-9 6.8-19 6.2-9.9 5.2-10.5 12.8-16.6 7.6-6.1-1.3-10.3 11.2-8.6 12.5 1.7 23 6.4 39.1 3.1 16.1-3.3 17.2-8.8 30.8-10.1 13.6-1.3 18.1-1.7 29.1-1.6 11 .2 20.2-5.7 27.6-2.1 7.4 3.6 11.8 9.4 10.7 19.2-1.1 9.8-11 14.3-4.2 19.7 6.8 5.5 4.6 5.9 11.9 9.6 7.3 3.6 19.6 8.3 27.4 10.5 7.8 2.2 6.2 1.1 17.5 8.3 11.3 7.2 13 11 19.3 8.3 6.3-2.7 9.8 1.6 15.8-4.3s.4-6.4 5.3-12.9c4.9-6.5 9.5-13.9 16.5-9.8s.8 3 10.9 8.2c10 5.2-7.2 5.4 13.7 6.2 20.9.8 16.5 1.5 30 .8 13.5-.6 13-.6 18-2.1 5-1.4 2.1-9.6 10.8-5.2 8.8 4.5 16.3 4.9 22.4-1.4 6.1-6.3 6.2-12.2 12.3-17.2 6.1-5 8.2-11 10.1-18.5 1.9-7.5 2.5-14.5.3-20.6-2.2-6.1 2.2-16-8.6-8.8-10.8 7.1-15.3 10.1-23.3 10.2-8 .1-15.1-10.5-23.4-2.2-8.3 8.4-10.8 1-20.6-4.3s-.4-18.6-10.9-27.3-15-13.8-19.6-13.4c-4.5.4-9.1.9-12 2.2-2.9 1.3-9.9.7-10.6 7-.8 6.2-.7 7.3 1.1 10.8 1.8 3.5 10.3 6.2 11.2 9.5 1 3.3 0 5.1-.8 5.9-.8.8-2.2 3.3-6.9 4.2-4.7.8-4.3 3.2-6.1 5-1.8 1.8-5.2 3.1-6-1.8-.8-4.9-4.3-3.7-3.9-8.7.4-4.9-5-9.5-8.2-16.1-3.2-6.6-5.6-6.1-5.5-13.2.1-7.1-1.8-12.7-6.8-16.9-5-4.3-10.1-5-13.9-8.7-3.8-3.7-8.9-5.8-10.6-7-1.7-1.2-7.3-10.2-11.5-12-4.2-1.8-6.3-6.1-8.3-9.2-2-3-1.6.2-5.4 0-3.8-.3-7.2 1.7-7.8 2.9-.6 1.2-.7 5.1-.1 7.2.6 2.1 5.3 9.2 9.6 15.7s10.6 18.4 16.6 20.3c6 1.9 12.8 2.7 17 5.6 4.1 2.9 9.1 4.7 10.3 7.9 1.2 3.2.8 5.4-1.1 5.2-1.9-.2-5.5-6.8-7.7-7-2.3-.2-3.7 1.3-4.9 2.9-1.2 1.7-2.5 4.1-1.2 5.5 1.3 1.4 3.7 1.7 3.8 5 .1 3.3-1.8 7.9-2.7 9.2-.9 1.3-4 4-4.8 4.6-.8.6-5.1 4.2-5 .6.1-3.6 1.5-7.1 2.9-8.3 1.4-1.3.7-5.9-.8-8.9s-2.8-6-4.2-7.3c-1.3-1.3-15.9-11-17.4-12.2-1.5-1.3-16.2-8.8-21.6-16.9-5.4-8.1-13.9-19.7-18.9-18.2-5 1.5-11 7.7-18.7 10.2-7.7 2.6-21-3.1-25.4-1.6-4.4 1.5-8.3 5.4-8.9 10.6-.6 5.2-4.5 10.3-7.7 12.6-3.2 2.3-9.9 2.2-16.2 10.5-6.3 8.3-4.5 8.6-7.4 15.4-2.9 6.8-4.5 12.5-10.5 15.9-5.9 3.4-15.5 5.8-23.2 5.8-7.7 0-9.8 3.5-15.7.3-6-3.3-8.9-4.5-15.6-8.8-6.8-4.3-8.5-8.5-9.2-15.5-.8-7 6.4-14 4.6-27-1.9-13.1-2.3-15.9 1-19.4 3.2-3.5 20.1-4.7 34.3-2.8 14.2 1.9 25.5 9.3 29.7-2.7 4.2-12 6.8-20.3 2.9-24.9-3.9-4.6-9.3-13.7-16.3-14.8-7-1.1-14.2-3.1-10.4-6.9 3.7-3.8 13.8-3.1 19.5-3.5 5.7-.4 4.3.4 9.6-3.5s10.6-4.7 14.3-7.5c3.7-2.8 7.5-5.7 11.7-8.7 4.2-2.9 21.2-10.9 27.3-20.5 6-9.6 20.1-12.4 25.3-11.2 5.2 1.2 8.4-.6 9.1-6.6.7-6-5-10.2-4.3-14.2.7-4-.7-9.4 2.4-11.5 3-2.1 11.7-9.2 13.3-7.7 1.6 1.5 3.9 4.9 1.2 8.6-2.7 3.6-7.4 6.2-5.8 10.5 1.6 4.3-1.2 10.9 2 12 3.2 1.1 4.5 1.6 7.8 3.8 3.3 2.2 6.9-1.5 12.7-1.1 5.9.4 7.3 5.1 29.4 1.2 22.1-3.8 23.6-1.5 30.7-6 7.1-4.5 3.4-16.1 7-20.4 3.6-4.3 7.8-7.1 11.1-4.3 3.3 2.7 8.9 6.1 12.2 2.3 3.3-3.8-3.1-13.4 3.6-17.3 6.7-3.9 6.7.3 18.6-1.9 11.9-2.2 23.7-5.3 14.7-8.5-9-3.1-15-5.4-23.2-5-8.2.4-28.4 6.3-35-6.1-6.6-12.4-8-15.3-3.5-20.6 4.4-5.3 11.6-12.5 19.9-16.5 8.3-4.1 112.2-2.3 165.1 18.1 52.9 20.4 69.9 86.2 80.3 98 10.4 11.8 16.9 62.9 4.7 69.7-12.2 6.8-17.1 8.7-23.5 12.9-6.4 4.2-21.4-.8-15.2 10 6.3 10.8 10.4 16.3 15.6 20.4 5.2 4.1 18.3 6.9 14.6 17.4-3.7 10.5-10.1 14.6 1.5 20.5s14 11.3 14 11.3-5.2 44.3-15.3 48c-10.1 3.7-10 4.9-15.7 8-5.7 3.1-5.7 6.4-2.9 9.4 2.7 3 7.9 8.4 7.9 10.4s-57.8 104-73.8 113.3c-16 9.3-20.8 11.3-20.2 5.7.6-5.5 1.5-15.6-1.1-24.1-2.6-8.6-4.4-26.4-9.2-40.5-4.8-14.1-24.6 2.6-20.6 18.5s-3 8 1.1 28.5 2.9 21.5 3.5 26c.6 4.6 3.3 29.2 3.3 29.2s-341.1 120.2-369.6 78.6c-28.5-41.6-40.9-129.8-49.9-148.2-9-18.6-15.8-51.7-15.8-51.7z" id="path4993"/></g></g></g><g id="g5007"><g id="g5005"><g id="g5003"><path class="st5" d="M1261.1 1224.2c1.3.1 2.8.1 3.6 3.9.9 3.9.4 10-.4 12.8-.8 2.8.7 5.2-.9 5.5-1.6.3-4.2-.4-4.9.4-.8.8-5.5 2.2-4.5-3s.3-4.6.6-7.9c.3-3.3-2.1-4.5-1.8-6.2.3-1.7 5.3-5.8 8.3-5.5z" id="path5001"/></g></g></g><g id="g5015"><g id="g5013"><g id="g5011"><path class="st5" d="M1290 1262.3s2.6 2.6 3.5 3.2c.9.6 3.3 1.5 5.9 2.9 2.6 1.5 5.3 2.5 6.9 3.4 1.6.9 2 1 3.8 1 1.8 0 3.1-1.2 3.1-2.9s-.5-7.7.6-8.9c1-1.2 1.7-2.9 1.3-2.7-.4.2-7.1 2.4-8.5 2.4-1.3 0-4.7-.2-6.1-.6-1.4-.4-3.8-1.9-5-1.7-1.2.2-.5.3-2.1.9-1.6.5-5 .8-3.4 3z" id="path5009"/></g></g></g><g id="g5023"><g id="g5021"><g id="g5019"><path class="st5" d="M1163.3 1041.2c-.3 2.8-.1 6.3 2.1 10.5s2.2 1.9 3.4 7.4c1.2 5.5 3.6 9.9 5.3 11.5 1.7 1.6 3 2.2 6.9 7.9 3.9 5.7 3.6 6.9 7.6 12.7 4 5.7 9.9 6.8 9.9 11.3-.1 4.5 3 14.1-6 17-9.1 2.9-10.9 3.2-15.5 4.4-4.6 1.3-19.1 2.8-21.7 4.4-2.6 1.6-12 1.9-12 1.9s-.7-.8 2.6-5.6 1.3-6.6 6.8-6.2c5.5.4 8.7-3 8.8-3 0 0-1.2-.4-5.3-1.4-4.1-1-7.9-2.1-4.2-5.8 3.7-3.7 1.1-7.6 4.3-9.4 3.3-1.9 8.7-.4 9-5 .3-4.6 5.5 1 1.5-5.6-4.1-6.7-4.3-5.7-7.4-8.9-3.2-3.2-5.4-4.2-6.2-7.5-.8-3.3 1.2-5.8.5-9.1s.3-4.3-2-9.3c-2.3-5-1.3-9.1-.2-9.8.7-.8 11.8-2.4 11.8-2.4z" id="path5017"/></g></g></g><g id="g5031"><g id="g5029"><g id="g5027"><path class="st5" d="M1107.8 1115.8c3.9 2.4 7.8.4 10.6-1.5 2.8-2 3.4-5.8 9.4-5.9 6-.1 5.4 5.7 9-.4 3.6-6.1 2.6-16.9 2.6-16.9s.4-5.3 4.6-5.4c4.1-.1 3.4-5.9.7-6.6-2.7-.7-6.9-1.8-9.2-1.1-2.3.7-3.7.7-9 4.4s-4.5 7.1-6.9 7.7c-2.4.6-4.9 3.9-6.9 6.5s-4.5 7.7-5.3 10.5c-.8 2.8-4.8 5.6.4 8.7z" id="path5025"/></g></g></g><g id="g5039"><g id="g5037"><g id="g5035"><path class="st5" d="M1248.3 996.3c-.5 4.5-2.1 7.3-3 9.4-.9 2.1-5.2-.3-6.1 6.8-.8 7.1-4.5 7.2-.8 12.4 3.6 5.2-1.5 8.1 1 11.8 2.5 3.7 5.7 10.5 6.9 9.3 1.2-1.2 5.3-3.7 10.6-3.6 5.3.1 7.7-6.3 13.4-6.9 5.7-.6 5.6-4.9 8.6-2.8 2.9 2.1 4.6 13.1 7 15.9 2.5 2.8 4.3 7.6 6.4 10.1 2.1 2.5-1.2 11.5 5.6 10.4 6.8-1.1 6.3-2.9 11-3.5 4.7-.6 7.8 1.7 10.2-5.5 2.4-7.2 3.3-15.8 3.9-17.6.6-1.8 3.7-6.8 7.6-8.3 3.9-1.5 4.8-2.9 2.9-8.2-1.9-5.3-8.7-1.5-8.4-8.9.3-7.4.8-15.2.8-15.2s2.2-3.6 6.5-6.5 12.6-3.3 16.2-6.3c3.6-3 3.3-17.8 3.6-19.3.3-1.5-49.5 2.8-49.5 2.8z" id="path5033"/></g></g></g></g></g></g><g id="g5145"><g id="g5143"><g id="g5051"><g id="g5049"><path transform="rotate(12.26 1425.13 663.1)" class="st6" id="rect5047" d="M1415.5 630.5h19.6v65.2h-19.6z"/></g></g><g id="g5057"><g id="g5055"><path transform="rotate(102.26 1422.02 678.11)" class="st6" id="rect5053" d="M1412.2 622.8h19.6v110.7h-19.6z"/></g></g><g id="g5063"><g id="g5061"><path transform="rotate(12.26 1418.3 694.5)" class="st6" id="rect5059" d="M1411.9 588.3h13.2v212.4h-13.2z"/></g></g><g id="g5069"><g id="g5067"><path transform="rotate(102.26 1432.7 602.76)" class="st6" id="rect5065" d="M1426.1 578.5h13.2V627h-13.2z"/></g></g><g id="g5075"><g id="g5073"><path transform="rotate(12.26 1411.62 725.22)" class="st6" id="rect5071" d="M1401.9 699.7h19.8v50.9h-19.8z"/></g></g><g id="g5081"><g id="g5079"><path transform="rotate(12.26 1402.93 765.16)" class="st6" id="rect5077" d="M1393.2 755.3h19.8v19.6h-19.8z"/></g></g><g id="g5087"><g id="g5085"><path transform="rotate(102.26 1398.65 785.63)" class="st6" id="rect5083" d="M1393.1 738.7h11.2v94h-11.2z"/></g></g><g id="g5093"><g id="g5091"><path transform="rotate(102.26 1421.85 678.17)" class="st6" id="rect5089" d="M1415.3 516.6h13.2v323.2h-13.2z"/></g></g><g id="g5099"><g id="g5097"><path transform="rotate(102.26 1287.59 634.34)" class="st6" id="rect5095" d="M1285.4 613.2h4.4v42.2h-4.4z"/></g></g><g id="g5105"><g id="g5103"><path transform="rotate(102.26 1339.78 645.68)" class="st6" id="rect5101" d="M1337.6 624.6h4.4v42.2h-4.4z"/></g></g><g id="g5111"><g id="g5109"><path transform="rotate(102.26 1509.92 683.03)" class="st6" id="rect5107" d="M1507.7 661.9h4.4v42.2h-4.4z"/></g></g><g id="g5117"><g id="g5115"><path transform="rotate(102.26 1562.11 694.38)" class="st6" id="rect5113" d="M1559.9 673.3h4.4v42.2h-4.4z"/></g></g><g id="g5123"><g id="g5121"><path transform="rotate(-77.74 1556.11 722.16)" class="st6" id="rect5119" d="M1553.9 701.1h4.4v42.2h-4.4z"/></g></g><g id="g5129"><g id="g5127"><path transform="rotate(-77.74 1503.92 710.82)" class="st6" id="rect5125" d="M1501.7 689.7h4.4v42.2h-4.4z"/></g></g><g id="g5135"><g id="g5133"><path transform="rotate(-77.74 1333.78 673.47)" class="st6" id="rect5131" d="M1331.6 652.4h4.4v42.2h-4.4z"/></g></g><g id="g5141"><g id="g5139"><path transform="rotate(-77.74 1281.58 662.13)" class="st6" id="rect5137" d="M1279.4 641h4.4v42.2h-4.4z"/></g></g></g></g><g id="g5151"><g id="g5149"><circle class="st7" cx="893.6" cy="1181.3" r="8.8" id="circle5147"/></g></g><g id="g5157"><g id="g5155"><circle class="st7" cx="936.1" cy="1320.7" r="4.8" id="circle5153"/></g></g><g id="g5163"><g id="g5161"><circle class="st7" cx="762.9" cy="1312.8" r="3" id="circle5159"/></g></g><g id="g5169"><g id="g5167"><circle class="st7" cx="1270.9" cy="442.4" r="8.8" id="circle5165"/></g></g><g id="g5175"><g id="g5173"><circle class="st7" cx="1238.4" cy="879.2" r="4.8" id="circle5171"/></g></g><g id="g5181"><g id="g5179"><circle class="st7" cx="1213.7" cy="377" r="3" id="circle5177"/></g></g><g id="g5187"><g id="g5185"><circle class="st7" cx="1498.6" cy="949.7" r="4.8" id="circle5183"/></g></g><g id="g5193"><g id="g5191"><circle class="st7" cx="1378.5" cy="866.6" r="3" id="circle5189"/></g></g><g id="g5199"><g id="g5197"><circle class="st7" cx="536.7" cy="1086.1" r="4.8" id="circle5195"/></g></g><g id="g5203"><path d="M771.3 1153.3c-3.2-38-31.4-67.8-67.1-74.7a73.84 73.84 0 0142.2 60.7c3.4 40.7-26.8 76.4-67.4 79.8-30 2.5-57.4-13.3-71-38.1 9.9 38.6 46.4 65.6 87.5 62.1 45.7-3.8 79.7-44 75.8-89.8z" id="path5201" fill="#c9bc9b"/></g><g id="g5207"><path d="M746.4 1139.3a73.84 73.84 0 00-42.2-60.7c-3-.6-6.1-1-9.3-1.2-4.4-.3-8.9-.3-13.4.1-45.7 3.9-79.7 44.1-75.8 89.8.1.7.1 1.3.2 2 .4 4 1.2 8 2.1 11.8 13.6 24.8 41 40.7 71 38.1a74.02 74.02 0 0067.4-79.9z" id="path5205" fill="#e2d3aa"/></g><path d="M1551 1187.7c-10-119.3-98.8-213-210.8-234.5 72.5 34.2 125.4 104.9 132.6 190.6 10.8 127.7-84.1 240-211.8 250.8-94.4 7.9-180.3-41.8-223.1-119.8 31 121.3 145.9 206 274.8 195.2 143.7-12.3 250.4-138.6 238.3-282.3z" id="path5209" opacity=".2" fill="#8ee1ef"/><g id="g5283"><g id="g5213"><path transform="rotate(12.2 1288.99 573.64)" class="st11" id="rect5211" d="M1279.3 518.2h19.6v110.7h-19.6z"/></g><g id="g5217"><path transform="rotate(12.2 1311.05 578.41)" class="st11" id="rect5215" d="M1301.4 523h19.6v110.7h-19.6z"/></g><g id="g5221"><path transform="rotate(12.2 1341.19 584.94)" class="st11" id="rect5219" d="M1331.5 529.5h19.6v110.7h-19.6z"/></g><g id="g5225"><path transform="rotate(12.2 1363.25 589.71)" class="st11" id="rect5223" d="M1353.6 534.3h19.6V645h-19.6z"/></g><g id="g5229"><path transform="rotate(12.2 1511.34 622.14)" class="st11" id="rect5227" d="M1501.7 566.7h19.6v110.7h-19.6z"/></g><g id="g5233"><path transform="rotate(12.2 1533.4 626.92)" class="st11" id="rect5231" d="M1523.8 571.5h19.6v110.7h-19.6z"/></g><g id="g5237"><path transform="rotate(12.2 1563.54 633.44)" class="st11" id="rect5235" d="M1553.9 578h19.6v110.7h-19.6z"/></g><g id="g5241"><path transform="rotate(12.2 1585.6 638.22)" class="st11" id="rect5239" d="M1576 582.8h19.6v110.7H1576z"/></g><g id="g5245"><path transform="rotate(-167.8 1554.34 783.41)" class="st11" id="rect5243" d="M1544.5 728.1h19.6v110.7h-19.6z"/></g><g id="g5249"><path transform="rotate(-167.8 1532.27 778.64)" class="st11" id="rect5247" d="M1522.5 723.3h19.6V834h-19.6z"/></g><g id="g5253"><path transform="rotate(-167.8 1502.13 772.12)" class="st11" id="rect5251" d="M1492.3 716.8h19.6v110.7h-19.6z"/></g><g id="g5257"><path transform="rotate(-167.8 1480.07 767.34)" class="st11" id="rect5255" d="M1470.3 712h19.6v110.7h-19.6z"/></g><g id="g5261"><path transform="rotate(-167.8 1331.96 734.92)" class="st11" id="rect5259" d="M1322.2 679.6h19.6v110.7h-19.6z"/></g><g id="g5265"><path transform="rotate(-167.8 1309.9 730.15)" class="st11" id="rect5263" d="M1300.1 674.8h19.6v110.7h-19.6z"/></g><g id="g5269"><path transform="rotate(-167.8 1279.76 723.63)" class="st11" id="rect5267" d="M1269.9 668.3h19.6V779h-19.6z"/></g><g id="g5273"><path transform="rotate(-167.8 1257.7 718.85)" class="st11" id="rect5271" d="M1247.9 663.5h19.6v110.7h-19.6z"/></g><g id="g5277"><path transform="rotate(-167.8 1387.36 715.84)" class="st11" id="rect5275" d="M1377.5 686.1h19.6v59.5h-19.6z"/></g><g id="g5281"><path transform="rotate(-167.8 1437.23 726.63)" class="st11" id="rect5279" d="M1427.4 696.9h19.6v59.5h-19.6z"/></g></g><g id="g5357"><g id="g5287"><path transform="rotate(12.2 1289.46 573.37)" class="st12" id="rect5285" d="M1279.8 518h19.6v110.7h-19.6z"/></g><g id="g5291"><path transform="rotate(12.2 1311.52 578.15)" class="st12" id="rect5289" d="M1301.9 522.7h19.6v110.7h-19.6z"/></g><g id="g5295"><path transform="rotate(12.2 1341.66 584.67)" class="st12" id="rect5293" d="M1332 529.3h19.6V640H1332z"/></g><g id="g5299"><path transform="rotate(12.2 1363.72 589.45)" class="st12" id="rect5297" d="M1354.1 534h19.6v110.7h-19.6z"/></g><g id="g5303"><path transform="rotate(12.2 1511.8 621.88)" class="st12" id="rect5301" d="M1502.2 566.4h19.6v110.7h-19.6z"/></g><g id="g5307"><path transform="rotate(12.2 1533.87 626.66)" class="st12" id="rect5305" d="M1524.2 571.2h19.6v110.7h-19.6z"/></g><g id="g5311"><path transform="rotate(12.2 1564 633.18)" class="st12" id="rect5309" d="M1554.4 577.7h19.6v110.7h-19.6z"/></g><g id="g5315"><path transform="rotate(12.2 1586.07 637.96)" class="st12" id="rect5313" d="M1576.4 582.5h19.6v110.7h-19.6z"/></g><g id="g5319"><path transform="rotate(-167.8 1554.8 783.15)" class="st12" id="rect5317" d="M1545 727.8h19.6v110.7H1545z"/></g><g id="g5323"><path transform="rotate(-167.8 1532.74 778.37)" class="st12" id="rect5321" d="M1522.9 723.1h19.6v110.7h-19.6z"/></g><g id="g5327"><path transform="rotate(-167.8 1502.6 771.85)" class="st12" id="rect5325" d="M1492.8 716.5h19.6v110.7h-19.6z"/></g><g id="g5331"><path transform="rotate(-167.8 1480.53 767.08)" class="st12" id="rect5329" d="M1470.7 711.8h19.6v110.7h-19.6z"/></g><g id="g5335"><path transform="rotate(-167.8 1332.43 734.66)" class="st12" id="rect5333" d="M1322.6 679.3h19.6V790h-19.6z"/></g><g id="g5339"><path transform="rotate(-167.8 1310.36 729.88)" class="st12" id="rect5337" d="M1300.6 674.6h19.6v110.7h-19.6z"/></g><g id="g5343"><path transform="rotate(-167.8 1280.23 723.36)" class="st12" id="rect5341" d="M1270.4 668h19.6v110.7h-19.6z"/></g><g id="g5347"><path transform="rotate(-167.8 1258.16 718.59)" class="st12" id="rect5345" d="M1248.3 663.3h19.6V774h-19.6z"/></g><g id="g5351"><path transform="rotate(-167.8 1387.83 715.58)" class="st12" id="rect5349" d="M1378 685.8h19.6v59.5H1378z"/></g><g id="g5355"><path transform="rotate(-167.8 1437.7 726.37)" class="st12" id="rect5353" d="M1427.9 696.6h19.6v59.5h-19.6z"/></g></g><g id="g5431"><g id="g5361"><path transform="rotate(12.2 1289.65 572.47)" class="st13" id="rect5359" d="M1280 526.3h19.6v92.2H1280z"/></g><g id="g5365"><path transform="rotate(12.2 1311.72 577.25)" class="st13" id="rect5363" d="M1302.1 531.1h19.6v92.2h-19.6z"/></g><g id="g5369"><path transform="rotate(12.2 1341.85 583.77)" class="st13" id="rect5367" d="M1332.2 537.6h19.6v92.2h-19.6z"/></g><g id="g5373"><path transform="rotate(12.2 1363.92 588.55)" class="st13" id="rect5371" d="M1354.3 542.4h19.6v92.2h-19.6z"/></g><g id="g5377"><path transform="rotate(12.2 1512 620.98)" class="st13" id="rect5375" d="M1502.4 574.8h19.6V667h-19.6z"/></g><g id="g5381"><path transform="rotate(12.2 1534.07 625.75)" class="st13" id="rect5379" d="M1524.4 579.6h19.6v92.2h-19.6z"/></g><g id="g5385"><path transform="rotate(12.2 1564.2 632.28)" class="st13" id="rect5383" d="M1554.6 586.1h19.6v92.2h-19.6z"/></g><g id="g5389"><path transform="rotate(12.2 1586.27 637.05)" class="st13" id="rect5387" d="M1576.6 590.9h19.6v92.2h-19.6z"/></g><g id="g5393"><path transform="rotate(-167.8 1555 782.25)" class="st13" id="rect5391" d="M1545.2 736.2h19.6v92.2h-19.6z"/></g><g id="g5397"><path transform="rotate(-167.8 1532.93 777.47)" class="st13" id="rect5395" d="M1523.1 731.4h19.6v92.2h-19.6z"/></g><g id="g5401"><path transform="rotate(-167.8 1502.8 770.95)" class="st13" id="rect5399" d="M1493 724.9h19.6v92.2H1493z"/></g><g id="g5405"><path transform="rotate(-167.8 1480.73 766.18)" class="st13" id="rect5403" d="M1470.9 720.1h19.6v92.2h-19.6z"/></g><g id="g5409"><path transform="rotate(-167.8 1332.63 733.76)" class="st13" id="rect5407" d="M1322.8 687.7h19.6v92.2h-19.6z"/></g><g id="g5413"><path transform="rotate(-167.8 1310.56 728.98)" class="st13" id="rect5411" d="M1300.7 682.9h19.6v92.2h-19.6z"/></g><g id="g5417"><path transform="rotate(-167.8 1280.42 722.46)" class="st13" id="rect5415" d="M1270.6 676.4h19.6v92.2h-19.6z"/></g><g id="g5421"><path transform="rotate(-167.8 1258.36 717.69)" class="st13" id="rect5419" d="M1248.5 671.6h19.6v92.2h-19.6z"/></g><g id="g5425"><path transform="rotate(-167.8 1388.02 714.68)" class="st13" id="rect5423" d="M1378.2 694.2h19.6v41h-19.6z"/></g><g id="g5429"><path transform="rotate(-167.8 1437.9 725.47)" class="st13" id="rect5427" d="M1428.1 705h19.6v41h-19.6z"/></g></g><g id="g5505"><g id="g5435"><path transform="rotate(12.2 1289.65 572.47)" class="st14" id="rect5433" d="M1280 535.5h19.6v73.7H1280z"/></g><g id="g5439"><path transform="rotate(12.2 1311.72 577.25)" class="st14" id="rect5437" d="M1302.1 540.3h19.6V614h-19.6z"/></g><g id="g5443"><path transform="rotate(12.2 1341.85 583.77)" class="st14" id="rect5441" d="M1332.2 546.8h19.6v73.7h-19.6z"/></g><g id="g5447"><path transform="rotate(12.2 1363.92 588.55)" class="st14" id="rect5445" d="M1354.3 551.6h19.6v73.7h-19.6z"/></g><g id="g5451"><path transform="rotate(12.2 1512 620.98)" class="st14" id="rect5449" d="M1502.4 584h19.6v73.7h-19.6z"/></g><g id="g5455"><path transform="rotate(12.2 1534.07 625.75)" class="st14" id="rect5453" d="M1524.4 588.8h19.6v73.7h-19.6z"/></g><g id="g5459"><path transform="rotate(12.2 1564.2 632.28)" class="st14" id="rect5457" d="M1554.6 595.3h19.6V669h-19.6z"/></g><g id="g5463"><path transform="rotate(12.2 1586.27 637.05)" class="st14" id="rect5461" d="M1576.6 600.1h19.6v73.7h-19.6z"/></g><g id="g5467"><path transform="rotate(-167.8 1555 782.25)" class="st14" id="rect5465" d="M1545.2 745.4h19.6v73.7h-19.6z"/></g><g id="g5471"><path transform="rotate(-167.8 1532.93 777.47)" class="st14" id="rect5469" d="M1523.1 740.6h19.6v73.7h-19.6z"/></g><g id="g5475"><path transform="rotate(-167.8 1502.8 770.95)" class="st14" id="rect5473" d="M1493 734.1h19.6v73.7H1493z"/></g><g id="g5479"><path transform="rotate(-167.8 1480.73 766.18)" class="st14" id="rect5477" d="M1470.9 729.3h19.6V803h-19.6z"/></g><g id="g5483"><path transform="rotate(-167.8 1332.63 733.76)" class="st14" id="rect5481" d="M1322.8 696.9h19.6v73.7h-19.6z"/></g><g id="g5487"><path transform="rotate(-167.8 1310.56 728.98)" class="st14" id="rect5485" d="M1300.7 692.1h19.6v73.7h-19.6z"/></g><g id="g5491"><path transform="rotate(-167.8 1280.42 722.46)" class="st14" id="rect5489" d="M1270.6 685.6h19.6v73.7h-19.6z"/></g><g id="g5495"><path transform="rotate(-167.8 1258.36 717.69)" class="st14" id="rect5493" d="M1248.5 680.8h19.6v73.7h-19.6z"/></g><g id="g5499"><path class="st14" id="polygon5497" d="M1376.1 723.6l19.2 4.2 4.7-22.1-19.2-4.1z"/></g><g id="g5503"><path class="st14" id="polygon5501" d="M1426 734.4l19.2 4.2 4.7-22.1-19.2-4.1z"/></g></g><g id="g5579"><g id="g5509"><path class="st7" id="polygon5507" d="M1305.2 547.4l-19.2-4.1-11.6 54 19.2 4.2z"/></g><g id="g5513"><path class="st7" id="polygon5511" d="M1327.3 552.2l-19.2-4.1-11.6 54 19.2 4.2z"/></g><g id="g5517"><path class="st7" id="polygon5515" d="M1357.4 558.7l-19.2-4.1-11.6 54 19.2 4.2z"/></g><g id="g5521"><path class="st7" id="polygon5519" d="M1379.5 563.5l-19.2-4.1-11.6 54 19.2 4.2z"/></g><g id="g5525"><path class="st7" id="polygon5523" d="M1527.6 595.9l-19.2-4.1-11.6 54 19.2 4.2z"/></g><g id="g5529"><path class="st7" id="polygon5527" d="M1549.6 600.7l-19.2-4.1-11.5 54 19.2 4.2z"/></g><g id="g5533"><path class="st7" id="polygon5531" d="M1579.8 607.2l-19.2-4.1-11.6 54 19.2 4.2z"/></g><g id="g5537"><path class="st7" id="polygon5535" d="M1601.8 612l-19.2-4.1-11.5 54 19.2 4.2z"/></g><g id="g5541"><path class="st7" id="polygon5539" d="M1539.6 807.2l19.2 4.2 11.6-54.1-19.2-4.1z"/></g><g id="g5545"><path class="st7" id="polygon5543" d="M1517.6 802.4l19.1 4.2 11.6-54.1-19.2-4.1z"/></g><g id="g5549"><path class="st7" id="polygon5547" d="M1487.4 795.9l19.2 4.2 11.6-54.1-19.2-4.1z"/></g><g id="g5553"><path class="st7" id="polygon5551" d="M1465.3 791.1l19.2 4.2 11.6-54-19.2-4.2z"/></g><g id="g5557"><path class="st7" id="polygon5555" d="M1317.2 758.7l19.2 4.2 11.6-54.1-19.2-4.1z"/></g><g id="g5561"><path class="st7" id="polygon5559" d="M1295.2 753.9l19.2 4.2 11.6-54-19.2-4.2z"/></g><g id="g5565"><path class="st7" id="polygon5563" d="M1265 747.4l19.2 4.2 11.6-54.1-19.2-4.1z"/></g><g id="g5569"><path class="st7" id="polygon5567" d="M1243 742.6l19.2 4.2 11.6-54-19.2-4.2z"/></g><g id="g5573"><path class="st7" id="polygon5571" d="M1376.1 723.6l19.2 4.2 2.7-13-19.2-4.2z"/></g><g id="g5577"><path class="st7" id="polygon5575" d="M1426 734.4l19.2 4.2 2.7-13-19.2-4.2z"/></g></g></g><path transform="rotate(-.6)" class="st15" id="rect5585" stroke-width="1" d="M679.66 249.5h55.3v62.1h-55.3z"/><g id="g5605" transform="translate(-267.5 -161.8)"><g class="st16" id="g5603"><g id="g5589"><path class="st17" d="M585.5 255.3l65.3 105.8c.1.2.3.5.4.7L585.9 256c-.2-.2-.3-.4-.4-.7z" id="path5587"/></g><g id="g5593"><path class="st15" id="polygon5591" d="M697.5 442.4l-65.3-105.8-46.3-80.6 65.3 105.8z"/></g><g id="g5597"><path d="M565.5 242.6c8.6 1.4 16.1 6 20.4 13.5l46.3 80.6c8.5 14.9 1 35.4-16.8 45.9-8.9 5.2-18.7 7-27.4 5.6-8.6-1.4-16.1-6-20.4-13.5L521.3 294c-8.5-14.9-1-35.4 16.8-45.9 8.9-5.2 18.7-7 27.4-5.5z" id="path5595" fill="#b0a9b7"/></g><g id="g5601"><path class="st17" d="M633.4 481.1l-65.3-105.8c4.3 7 11.6 11.4 20 12.7 8.6 1.4 18.4-.3 27.4-5.6 17.8-10.5 25.4-31 16.8-45.9l65.3 105.8c8.5 14.9 1 35.4-16.8 45.9-8.9 5.2-18.7 7-27.4 5.6-8.4-1.3-15.7-5.7-20-12.7z" id="path5599"/></g></g></g><g id="g5667" transform="translate(-267.5 -161.8)"><path class="st19" id="polygon5607" d="M516.5 734.9L441 641.2l134-304.8 58.1-14.6 221.3 52.3-78 229.6-150.5 146.2z"/><g class="st16" id="g5635"><path class="st15" d="M1174.6 520c1.4-3.9 1-7.7-.8-10.7L1091.5 376c1.8 3 2.2 6.8.8 10.7l-29.8 81.2c-1.4 3.9-1 7.7.8 10.7l82.3 133.3c-1.8-3-2.2-6.8-.8-10.7z" id="path5609"/><path class="st19" d="M1002.7 593.1c-6.3-10.2-17.1-17.6-31.2-19.9l-84.2-13.9c-29.1-4.8-61 13.9-71.2 41.9-5.3 14.5-3.8 28.5 2.9 39.4l82.3 133.3c-6.7-10.9-8.2-25-2.9-39.4 10.2-27.9 42.1-46.7 71.2-41.9l84.2 13.9c14 2.3 24.9 9.7 31.2 19.9z" id="path5611"/><path class="st15" d="M1012.7 609.1c-6.3-10.2-17.1-17.6-31.2-19.9l-84.2-13.9c-29.1-4.8-61 13.9-71.2 41.9-5.3 14.5-3.8 28.5 2.9 39.4l82.3 133.3c-6.7-10.9-8.2-25-2.9-39.4 10.2-27.9 42.1-46.7 71.2-41.9l84.2 13.9c14 2.3 24.9 9.7 31.2 19.9z" id="path5613"/><g id="g5617"><path class="st15" d="M471 694.9c8.5 1.4 12.9 9.1 9.9 17.3-3 8.1-12.3 13.6-20.7 12.2-8.5-1.4-12.9-9.2-9.9-17.3 3-8.2 12.2-13.6 20.7-12.2z" id="path5615"/></g><path class="st20" d="M1093.7 487.5l-21.9-3.6c-7.9-1.3-12-8.5-9.2-16.1l29.8-81.2c2.8-7.6-1.4-14.8-9.2-16.1L572.8 286c-7.9-1.3-16.5 3.8-19.3 11.3L373.4 788c-2.8 7.6 1.4 14.7 9.2 16L893 888.5c7.9 1.3 16.5-3.8 19.3-11.3l29.8-81.2c2.8-7.6 11.4-12.6 19.3-11.3l20.9 3.5c2 .3 4.3-1 5-2.9l108-294.6c.6-1.6-.2-2.9-1.6-3.2zm-135.6-45.8l9.7-26.4c.7-1.8 2.8-3.1 4.7-2.7l25.1 4.2c1.9.3 2.9 2.1 2.2 3.9l-9.7 26.4c-.7 1.8-2.8 3.1-4.7 2.7l-25.1-4.2c-1.8-.3-2.8-2.1-2.2-3.9zM765.6 591.9L662.9 708.7c-15.3 17.4-39.1 26.5-60.4 22.9l-78-12.9c-3.3-.6-6.5-1.4-9.5-2.5-.4-.1-.8-.3-1.2-.4-.2-.1-.3-.1-.5-.2-9.6-4-20.7-13.9-24.9-22.3l-15.5-31.2-13.7-27.5c-2.5-5.1-2.7-11.2-.5-17.1l18.1-49.2c7.6-20.7 24-38.9 45.9-50.4 6.5-3.4 11.6-9.1 14-15.5L584.5 372c6.4-17.3 26.1-28.9 44.1-26l186.2 31c18 3 27.5 19.4 21.1 36.8l-57.6 157.1c-2.7 7.4-7.1 14.6-12.7 21zm240.1 40.6c-10.2 27.9-42.1 46.7-71.2 41.9l-84.2-13.9c-29.1-4.8-44.4-31.4-34.1-59.3 10.2-27.9 42.1-46.7 71.2-41.9l84.2 13.9c29.1 4.8 44.3 31.4 34.1 59.3z" id="path5619"/><g id="g5623"><path class="st19" d="M1095.2 488.6l82.3 133.3c.3.6.4 1.3.1 2l-82.3-133.3c.4-.8.3-1.5-.1-2z" id="path5621"/></g><g id="g5627"><path class="st15" d="M875 592c10.1 1.7 15.4 10.9 11.9 20.7-3.6 9.7-14.7 16.3-24.8 14.6-10.1-1.7-15.5-10.9-11.9-20.7 3.5-9.8 14.6-16.3 24.8-14.6z" id="path5625"/></g><path class="st19" d="M987.4 785.2c-.7 2-3 3.3-5 2.9l-20.9-3.5 82.3 133.3 20.9 3.5c2.1.3 4.3-1 5-2.9l108-294.6-82.3-133.3z" id="path5629"/><path class="st15" d="M961.4 784.7c-7.9-1.3-16.5 3.8-19.3 11.3l-29.8 81.2 82.3 133.3 29.8-81.2c2.8-7.6 11.4-12.6 19.3-11.3z" id="path5631"/><path class="st19" d="M912.4 877.2c-2.8 7.6-11.4 12.6-19.3 11.3L382.7 804c-3.8-.6-6.7-2.6-8.4-5.4l82.3 133.3c1.7 2.8 4.6 4.8 8.4 5.4l510.4 84.5c7.9 1.3 16.5-3.8 19.3-11.3z" id="path5633"/></g><g class="st16" id="g5665"><g id="g5639"><path class="st20" id="polygon5637" d="M1171.2 734.1l-82.3-133.3 37.9-103.4 82.3 133.3z"/></g><g id="g5643"><path class="st15" id="polygon5641" d="M1140 819.1l-82.3-133.3 13 2.1 82.3 133.3z"/></g><g id="g5647"><path class="st20" id="polygon5645" d="M1155.7 839.7l-82.4-133.3 43.7-119 82.3 133.3z"/></g><g id="g5651"><path class="st20" id="polygon5649" d="M1102.1 922.5l-82.3-133.3 37.9-103.4 82.3 133.3z"/></g><g id="g5655"><path class="st15" id="polygon5653" d="M1146.8 838.2l-82.4-133.3 8.9 1.5 82.4 133.3z"/></g><g id="g5659"><path class="st21" id="polygon5657" d="M1064.4 704.9l6.3-17-13-2.1-37.9 103.4-32-5.3 107-291.8 32 5.3-37.9 103.4 12.9 2.1 6.3-17 8.9 1.5-43.7 119z"/></g><g id="g5663"><path class="st15" id="polygon5661" d="M1070.2 917.2l-82.4-133.3 32 5.3 82.3 133.3z"/></g></g></g><g id="g5671" transform="translate(-267.5 -161.8)"><path class="st15" d="M959.6 606c10.1 1.7 15.4 10.9 11.9 20.7-3.6 9.7-14.7 16.3-24.8 14.6-10.1-1.7-15.5-10.9-11.9-20.7 3.6-9.8 14.7-16.3 24.8-14.6z" id="path5669"/></g><g id="g5675" transform="translate(-267.5 -161.8)"><path class="st19" d="M905.9 586.5l8.3 13.7c5.1 8.2 6.2 18.8 2.2 29.7-7.7 21-31.7 35.2-53.6 31.5-10.6-1.8-18.7-7.3-23.5-15l-8.3-13.7c4.7 7.7 12.9 13.2 23.5 15 21.9 3.6 45.9-10.5 53.6-31.5 4-10.9 2.9-21.5-2.2-29.7z" id="path5673"/></g><g id="g5679" transform="translate(-267.5 -161.8)"><path class="st20" d="M882.5 571.5c21.9 3.6 33.4 23.6 25.7 44.7-7.7 21-31.7 35.2-53.6 31.5-21.9-3.6-33.4-23.6-25.7-44.7 7.6-21 31.7-35.1 53.6-31.5zM862 627.2c10.1 1.7 21.2-4.9 24.8-14.6 3.6-9.7-1.7-19-11.9-20.7-10.1-1.7-21.3 4.9-24.8 14.6-3.5 9.8 1.8 19.1 11.9 20.7" id="path5677"/></g><g id="g5683" transform="translate(-267.5 -161.8)"><path class="st20" d="M967.1 585.5c21.9 3.6 33.4 23.6 25.7 44.7-7.7 21-31.7 35.2-53.6 31.5-21.9-3.6-33.4-23.6-25.7-44.7 7.7-21 31.7-35.1 53.6-31.5zm-20.4 55.7c10.1 1.7 21.3-4.9 24.8-14.6 3.6-9.7-1.7-19-11.9-20.7-10.1-1.7-21.2 4.9-24.8 14.6-3.6 9.8 1.8 19.1 11.9 20.7" id="path5681"/></g><path class="st15" id="polygon5685" transform="translate(-267.5 -161.8)" d="M844.5 609.2l6.7 11.1 34.6-21.4-6.3-10.5z"/><g id="g5689" transform="translate(-267.5 -161.8)"><path class="st21" d="M868.5 581.2c10.1 1.7 15.4 10.9 11.9 20.7-3.6 9.7-14.7 16.3-24.8 14.6-10.1-1.7-15.5-10.9-11.9-20.7 3.5-9.7 14.6-16.2 24.8-14.6z" id="path5687"/></g><path class="st15" id="polygon5691" transform="translate(-267.5 -161.8)" d="M929.1 623.2l6.7 11.1 34.7-21.4-6.4-10.5z"/><g id="g5695" transform="translate(-267.5 -161.8)"><path class="st21" d="M953.1 595.3c10.1 1.7 15.4 10.9 11.9 20.7-3.6 9.7-14.7 16.3-24.8 14.6-10.1-1.7-15.5-10.9-11.9-20.7 3.6-9.8 14.7-16.3 24.8-14.6z" id="path5693"/></g><g id="g5699" transform="translate(-267.5 -161.8)"><path class="st15" d="M624.4 666.2c8.4 1.4 12.9 9.1 9.9 17.3-3 8.1-12.3 13.6-20.7 12.2-8.4-1.4-12.9-9.1-9.9-17.2 3-8.2 12.3-13.7 20.7-12.3z" id="path5697"/></g><g id="g5705" transform="translate(-267.5 -161.8)"><path class="st20" d="M811.6 396.7c7.2 1.2 11 7.8 8.5 14.8l-58.9 160.7c-1.9 5.1-4.8 9.9-8.6 14.2L647.5 705.8c-9.9 11.2-25.1 17-38.9 14.7l-70.2-11.6c-3.2-.5-6.3-1.4-9.3-2.7l-5.5-2.3c-8-3.4-14.7-9.4-19-16.9L478 636.8c2.6 3.1 6.3 5.3 11 6 11.5 1.9 24.2-5.5 28.2-16.6 4.1-11.1-2-21.6-13.5-23.5-8.6-1.4-17.7 2.3-23.5 8.8l12.9-35.2c5.7-15.6 18.2-29.4 34.1-37.7 13.1-6.9 22.7-17.5 27.2-29.7l48.9-133.4c2.5-6.9 10.5-11.6 17.7-10.4zm-197 296.4c7 1.2 14.6-3.4 17.1-10 2.5-6.7-1.2-13-8.2-14.2-7-1.2-14.6 3.3-17.1 10-2.5 6.6 1.2 13 8.2 14.2" id="path5701"/><path d="M815.4 409.7c.7-2 .6-3.9-.2-5.4-.8-1.4-2.4-2.4-4.4-2.7l-190.5-31.5c-.5-.1-1-.1-1.5-.1-4.6 0-9.2 3.2-10.7 7.3l-20.8 56.8-36.6 99.8c-2.5 6.9 1.8 14.5 9.1 15.8l178 31.4c7.9 1.4 15.9-2.9 18.7-10.5 0-.1 0-.1.1-.2z" id="path5703" fill="#dbdcdd"/></g><path class="st19" d="M271.5 547.8c1.1-.2 2.2-.6 3.1-1.1l26.5-13.9c14.9-8.5 18.6-28.3 7.9-41.8a27.94 27.94 0 00-35.8-6.8L232.6 506c-2.8 1.5-5.9 2.3-9 2.3l-11.6.1c-1.7 0-3.3.5-4.7 1.3l-26.7 15.8a28.33 28.33 0 00-11.4 36 28.1 28.1 0 0040.1 12.5l34.6-20.9z" id="path5707"/><path class="st19" d="M737.4 472.8c.3-6.7-1.3-13-4.6-18.3l-9.7-15.8c5.1 8.2 6.2 18.8 2.2 29.7-7.7 21-31.7 35.2-53.6 31.5-10.6-1.8-18.7-7.3-23.4-15l9.7 15.8c3.4 5.5 8.5 9.8 15 12.5 26.6 1.5 54.1-15.5 64.4-40.4z" id="path5709"/><g id="g5733" transform="translate(-267.5 -161.8)"><defs id="defs5712"><path id="SVGID_3_" d="M1205.4 345.7l-64.9-21-81.9 41.9 24.4 4c3.4.6 6.1 2.2 7.9 4.5l.9 1.5 11.6 18.4c.1.1.1.2.2.3 1.6 2.9 2 6.6.6 10.3l-8.7 25.9 69.4 114.2 67-12.4 34.7-63.5z"/></defs><clipPath id="SVGID_4_"><use xlink:href="#SVGID_3_" id="use5714" x="0" y="0" width="100%" height="100%" overflow="visible"/></clipPath><defs id="defs5722"><filter id="Adobe_OpacityMaskFilter" filterUnits="userSpaceOnUse" x="1003.8" y="338.6" width="233.7" height="222.5"><feFlood result="back" id="feFlood5717"/><feBlend in="SourceGraphic" in2="back" mode="normal" id="feBlend5719"/></filter></defs><g clip-path="url(#SVGID_4_)" id="g5731"><g id="g5727"><path class="st20" d="M1148.3 339.1c8.6 1.4 16.1 6 20.4 13.5 8.5 14.9 1 35.4-16.8 45.9l-96.7 56.9c-8.9 5.2-18.7 7-27.4 5.5s-16.1-6-20.4-13.5c-8.5-14.9-1-35.4 16.8-45.9l96.8-56.9c8.8-5.2 18.6-7 27.3-5.5z" id="path5725"/></g><path d="M1234 458.3c-.1-.2-.3-.5-.4-.7l-65.3-105.8c.1.2.3.5.4.7 8.5 14.9 1 35.4-16.8 45.9l-96.7 56.9 65.3 105.8 96.7-56.9c17.8-10.5 25.3-31 16.8-45.9z" id="path5729" fill="#7d7683"/></g></g><g id="g5767" transform="translate(-267.5 -161.8)"><defs id="defs5736"><path id="SVGID_6_" d="M927.3 905.9c-2.8 7.6-11.4 12.6-19.3 11.3l-52.4-8.7L982.3 1096l72.6-42.5v-46.8L947.8 850.1z"/></defs><clipPath id="SVGID_7_"><use xlink:href="#SVGID_6_" id="use5738" x="0" y="0" width="100%" height="100%" overflow="visible"/></clipPath><defs id="defs5746"><filter id="Adobe_OpacityMaskFilter_1_" filterUnits="userSpaceOnUse" x="848.9" y="818" width="183.3" height="252.2"><feFlood result="back" id="feFlood5741"/><feBlend in="SourceGraphic" in2="back" mode="normal" id="feBlend5743"/></filter></defs><g clip-path="url(#SVGID_7_)" id="g5765"><g id="g5751"><path class="st17" d="M916.5 831.2L981.9 937c.1.2.3.5.4.7L917 831.9c-.2-.2-.3-.4-.5-.7z" id="path5749"/></g><g id="g5755"><path class="st15" id="polygon5753" d="M1028.6 1018.3l-65.3-105.8-46.3-80.6 65.3 105.8z"/></g><g id="g5759"><path class="st20" d="M896.6 818.5c8.6 1.4 16.1 6 20.4 13.5l46.3 80.6c8.5 14.9 1 35.4-16.8 45.9-8.9 5.2-18.7 7-27.4 5.6-8.6-1.4-16.1-6-20.4-13.5L852.4 870c-8.5-14.9-1-35.4 16.8-45.9 8.9-5.3 18.7-7 27.4-5.6z" id="path5757"/></g><g id="g5763"><path class="st19" d="M964.5 1057l-65.3-105.8c4.3 7 11.6 11.4 20 12.7 8.6 1.4 18.4-.3 27.4-5.6 17.8-10.5 25.4-31 16.8-45.9l65.3 105.8c8.5 14.9 1 35.4-16.8 45.9-8.9 5.2-18.7 7-27.4 5.6-8.4-1.3-15.7-5.7-20-12.7z" id="path5761"/></g></g></g><g id="g5795" transform="translate(-267.5 -161.8)"><defs id="defs5770"><path id="SVGID_9_" d="M396.1 825.9c-4.5-.7-7.8-3.4-9.2-7L376 800.7a11.7 11.7 0 01-2.9-4.8c-.7-2.4-.6-5.2.4-8l8.7-23.7-107 56 112.5 180.5 124.7-55.6-71.8-111.9z"/></defs><clipPath id="SVGID_10_"><use xlink:href="#SVGID_9_" id="use5772" x="0" y="0" width="100%" height="100%" overflow="visible"/></clipPath><defs id="defs5780"><filter id="Adobe_OpacityMaskFilter_2_" filterUnits="userSpaceOnUse" x="312.4" y="745.2" width="213.3" height="228.5"><feFlood result="back" id="feFlood5775"/><feBlend in="SourceGraphic" in2="back" mode="normal" id="feBlend5777"/></filter></defs><g clip-path="url(#SVGID_10_)" id="g5793"><path class="st15" d="M460.4 805l-96.7 56.9c-8.9 5.2-18.7 7-27.4 5.5-8.4-1.4-15.6-5.7-20-12.7l65.3 105.8c4.3 7 11.6 11.4 20 12.7 8.6 1.4 18.4-.3 27.4-5.5l96.7-56.9z" id="path5787"/><g id="g5791"><path class="st20" d="M456.9 745.7c8.6 1.4 16.1 6 20.4 13.5 8.5 14.9 1 35.4-16.8 45.9L363.8 862c-8.9 5.2-18.7 7-27.4 5.5-8.6-1.4-16.1-6-20.4-13.5-8.5-14.9-1-35.4 16.8-45.9l96.8-56.9c8.8-5.2 18.6-6.9 27.3-5.5z" id="path5789"/></g></g></g><g id="g6055" transform="translate(-267.5 -161.8)"><g class="st16" id="g6053"><g id="g5799"><path class="st31" d="M622.5 373.8c4.4.7 6.7 4.7 5.1 8.9-1.6 4.2-6.3 7-10.7 6.3-4.4-.7-6.7-4.7-5.1-8.9 1.5-4.2 6.3-7 10.7-6.3z" id="path5797"/></g><g id="g5803"><path class="st31" d="M614.5 395.6c4.4.7 6.7 4.7 5.1 8.9-1.5 4.2-6.3 7-10.7 6.3-4.4-.7-6.7-4.7-5.1-8.9 1.5-4.2 6.3-7.1 10.7-6.3z" id="path5801"/></g><g id="g5807"><ellipse transform="rotate(-31.7 645.2 385.64)" class="st31" cx="645.2" cy="385.6" rx="8.8" ry="7.3" id="ellipse5805"/></g><g id="g5811"><path class="st31" d="M606.5 417.3c4.4.7 6.7 4.7 5.1 8.9-1.5 4.2-6.3 7-10.7 6.3-4.4-.7-6.7-4.7-5.1-8.9 1.5-4.2 6.3-7 10.7-6.3z" id="path5809"/></g><g id="g5815"><path class="st31" d="M640 399.8c4.4.7 6.7 4.7 5.1 8.9-1.5 4.2-6.4 7-10.7 6.3-4.4-.7-6.7-4.7-5.1-8.9 1.5-4.2 6.3-7 10.7-6.3z" id="path5813"/></g><g id="g5819"><ellipse transform="rotate(-31.7 670.7 389.86)" class="st31" cx="670.7" cy="389.8" rx="8.8" ry="7.3" id="ellipse5817"/></g><g id="g5823"><path class="st31" d="M598.5 439.1c4.4.7 6.7 4.7 5.1 8.9-1.5 4.2-6.3 7-10.7 6.3-4.4-.7-6.7-4.7-5.1-8.9 1.6-4.2 6.3-7 10.7-6.3z" id="path5821"/></g><g id="g5827"><ellipse transform="rotate(-31.7 629.24 429.2)" class="st31" cx="629.2" cy="429.2" rx="8.8" ry="7.3" id="ellipse5825"/></g><g id="g5831"><path class="st31" d="M665.5 404c4.4.7 6.7 4.7 5.1 8.9-1.5 4.2-6.3 7-10.7 6.3-4.4-.7-6.7-4.7-5.1-8.9 1.5-4.2 6.3-7 10.7-6.3z" id="path5829"/></g><g id="g5835"><path class="st31" d="M699 386.4c4.4.7 6.7 4.7 5.1 8.9-1.6 4.2-6.3 7-10.7 6.3-4.4-.7-6.7-4.7-5.1-8.9 1.5-4.2 6.3-7 10.7-6.3z" id="path5833"/></g><g id="g5839"><path class="st31" d="M590.6 460.9c4.4.7 6.7 4.7 5.1 8.9-1.5 4.2-6.3 7-10.7 6.3-4.4-.7-6.7-4.7-5.1-8.9 1.5-4.2 6.3-7 10.7-6.3z" id="path5837"/></g><g id="g5843"><path class="st31" d="M624 443.3c4.4.7 6.7 4.7 5.1 8.9-1.5 4.2-6.3 7-10.7 6.3-4.4-.7-6.7-4.7-5.1-8.9 1.5-4.2 6.3-7 10.7-6.3z" id="path5841"/></g><g id="g5847"><ellipse transform="rotate(-31.7 654.72 433.42)" class="st31" cx="654.7" cy="433.4" rx="8.8" ry="7.3" id="ellipse5845"/></g><g id="g5851"><path class="st31" d="M691 408.2c4.4.7 6.7 4.7 5.1 8.9-1.5 4.2-6.3 7-10.7 6.3-4.4-.7-6.7-4.7-5.1-8.9 1.5-4.2 6.3-7 10.7-6.3z" id="path5849"/></g><g id="g5855"><ellipse transform="rotate(-31.7 721.69 398.3)" class="st31" cx="721.7" cy="398.3" rx="8.8" ry="7.3" id="ellipse5853"/></g><g id="g5859"><path class="st31" d="M582.6 482.7c4.4.7 6.7 4.7 5.1 8.9-1.5 4.2-6.3 7-10.7 6.3-4.4-.7-6.7-4.7-5.1-8.9 1.5-4.2 6.3-7.1 10.7-6.3z" id="path5857"/></g><g id="g5863"><ellipse transform="rotate(-31.7 613.27 472.74)" class="st31" cx="613.2" cy="472.7" rx="8.8" ry="7.3" id="ellipse5861"/></g><g id="g5867"><path class="st31" d="M649.5 447.6c4.4.7 6.7 4.7 5.1 8.9-1.5 4.2-6.3 7-10.7 6.3-4.4-.7-6.7-4.7-5.1-8.9 1.5-4.3 6.3-7.1 10.7-6.3z" id="path5865"/></g><g id="g5871"><path class="st31" d="M683 430c4.4.7 6.7 4.7 5.1 8.9-1.5 4.2-6.3 7-10.7 6.3-4.4-.7-6.7-4.7-5.1-8.9 1.5-4.2 6.3-7 10.7-6.3z" id="path5869"/></g><g id="g5875"><path class="st31" d="M716.5 412.4c4.4.7 6.7 4.7 5.1 8.9-1.5 4.2-6.4 7-10.7 6.3-4.4-.7-6.7-4.7-5.1-8.9 1.5-4.2 6.3-7 10.7-6.3z" id="path5873"/></g><g id="g5879"><ellipse transform="rotate(-31.7 747.18 402.53)" class="st31" cx="747.1" cy="402.5" rx="8.8" ry="7.3" id="ellipse5877"/></g><g id="g5883"><path class="st31" d="M574.6 504.4c4.4.7 6.7 4.7 5.1 8.9-1.5 4.2-6.3 7-10.7 6.3-4.4-.7-6.7-4.7-5.1-8.9 1.5-4.2 6.3-7 10.7-6.3z" id="path5881"/></g><g id="g5887"><ellipse transform="rotate(-31.7 605.28 494.52)" class="st31" cx="605.3" cy="494.5" rx="8.8" ry="7.3" id="ellipse5885"/></g><g id="g5891"><ellipse transform="rotate(-31.7 638.76 476.96)" class="st31" cx="638.7" cy="476.9" rx="8.8" ry="7.3" id="ellipse5889"/></g><g id="g5895"><path class="st31" d="M675 451.8c4.4.7 6.7 4.7 5.1 8.9-1.5 4.2-6.3 7-10.7 6.3-4.4-.7-6.7-4.7-5.1-8.9 1.5-4.2 6.3-7 10.7-6.3z" id="path5893"/></g><g id="g5899"><ellipse transform="rotate(-31.7 705.71 441.86)" class="st31" cx="705.7" cy="441.8" rx="8.8" ry="7.3" id="ellipse5897"/></g><g id="g5903"><path class="st31" d="M742 416.7c4.4.7 6.7 4.7 5.1 8.9-1.5 4.2-6.3 7-10.7 6.3-4.4-.7-6.7-4.7-5.1-8.9 1.5-4.2 6.3-7.1 10.7-6.3z" id="path5901"/></g><g id="g5907"><path class="st31" d="M566.6 526.2c4.4.7 6.7 4.7 5.1 8.9-1.5 4.2-6.3 7-10.7 6.3-4.4-.7-6.7-4.7-5.1-8.9 1.5-4.2 6.3-7 10.7-6.3z" id="path5905"/></g><g id="g5911"><ellipse transform="rotate(-31.7 772.66 406.74)" class="st31" cx="772.6" cy="406.7" rx="8.8" ry="7.3" id="ellipse5909"/></g><g id="g5915"><ellipse transform="rotate(-31.7 597.3 516.3)" class="st31" cx="597.3" cy="516.3" rx="8.8" ry="7.3" id="ellipse5913"/></g><g id="g5919"><ellipse transform="rotate(-31.7 630.77 498.74)" class="st31" cx="630.7" cy="498.7" rx="8.8" ry="7.3" id="ellipse5917"/></g><g id="g5923"><path class="st31" d="M667 473.5c4.4.7 6.7 4.7 5.1 8.9-1.5 4.2-6.3 7-10.7 6.3-4.4-.7-6.7-4.7-5.1-8.9 1.5-4.2 6.3-7 10.7-6.3z" id="path5921"/></g><g id="g5927"><path class="st31" d="M700.5 456c4.4.7 6.7 4.7 5.1 8.9-1.5 4.2-6.3 7-10.7 6.3-4.4-.7-6.7-4.7-5.1-8.9 1.5-4.2 6.3-7 10.7-6.3z" id="path5925"/></g><g id="g5931"><ellipse transform="rotate(-31.7 731.2 446.08)" class="st31" cx="731.2" cy="446.1" rx="8.8" ry="7.3" id="ellipse5929"/></g><g id="g5935"><path class="st31" d="M767.4 420.9c4.4.7 6.7 4.7 5.1 8.9-1.5 4.2-6.3 7-10.7 6.3-4.4-.7-6.7-4.7-5.1-8.9 1.6-4.2 6.4-7 10.7-6.3z" id="path5933"/></g><g id="g5939"><ellipse transform="rotate(-31.7 589.3 538.07)" class="st31" cx="589.3" cy="538" rx="8.8" ry="7.3" id="ellipse5937"/></g><g id="g5943"><ellipse transform="rotate(-31.7 798.17 410.97)" class="st31" cx="798.1" cy="410.9" rx="8.8" ry="7.3" id="ellipse5941"/></g><g id="g5947"><ellipse transform="rotate(-31.7 622.78 520.51)" class="st31" cx="622.8" cy="520.5" rx="8.8" ry="7.3" id="ellipse5945"/></g><g id="g5951"><path class="st31" d="M659 495.3c4.4.7 6.7 4.7 5.1 8.9-1.5 4.2-6.3 7-10.7 6.3-4.4-.7-6.7-4.7-5.1-8.9 1.6-4.2 6.4-7 10.7-6.3z" id="path5949"/></g><g id="g5955"><ellipse transform="rotate(-31.7 689.75 485.4)" class="st31" cx="689.7" cy="485.4" rx="8.8" ry="7.3" id="ellipse5953"/></g><g id="g5959"><path class="st31" d="M726 460.2c4.4.7 6.7 4.7 5.1 8.9-1.5 4.2-6.3 7-10.7 6.3-4.4-.7-6.7-4.7-5.1-8.9 1.5-4.2 6.3-7 10.7-6.3z" id="path5957"/></g><g id="g5963"><ellipse transform="rotate(-31.7 756.69 450.3)" class="st31" cx="756.7" cy="450.3" rx="8.8" ry="7.3" id="ellipse5961"/></g><g id="g5967"><path class="st31" d="M792.9 425.1c4.4.7 6.7 4.7 5.1 8.9-1.5 4.2-6.4 7-10.7 6.3-4.4-.7-6.7-4.7-5.1-8.9 1.6-4.2 6.4-7 10.7-6.3z" id="path5965"/></g><g id="g5971"><ellipse transform="rotate(-31.7 614.8 542.3)" class="st31" cx="614.8" cy="542.3" rx="8.8" ry="7.3" id="ellipse5969"/></g><g id="g5975"><path class="st31" d="M651 517.1c4.4.7 6.7 4.7 5.1 8.9-1.5 4.2-6.3 7-10.7 6.3-4.4-.7-6.7-4.7-5.1-8.9 1.6-4.2 6.4-7 10.7-6.3z" id="path5973"/></g><g id="g5979"><ellipse transform="rotate(-31.7 681.76 507.18)" class="st31" cx="681.7" cy="507.2" rx="8.8" ry="7.3" id="ellipse5977"/></g><g id="g5983"><ellipse transform="rotate(-31.7 715.24 489.62)" class="st31" cx="715.2" cy="489.6" rx="8.8" ry="7.3" id="ellipse5981"/></g><g id="g5987"><path class="st31" d="M751.5 464.4c4.4.7 6.7 4.7 5.1 8.9-1.5 4.2-6.3 7-10.7 6.3-4.4-.7-6.7-4.7-5.1-8.9 1.5-4.2 6.3-7 10.7-6.3z" id="path5985"/></g><g id="g5991"><ellipse transform="rotate(-31.7 782.2 454.52)" class="st31" cx="782.2" cy="454.5" rx="8.8" ry="7.3" id="ellipse5989"/></g><g id="g5995"><path class="st31" d="M643.1 538.9c4.4.7 6.7 4.7 5.1 8.9-1.5 4.2-6.3 7-10.7 6.3-4.4-.7-6.7-4.7-5.1-8.9 1.5-4.2 6.3-7.1 10.7-6.3z" id="path5993"/></g><g id="g5999"><ellipse transform="rotate(-31.7 673.78 528.95)" class="st31" cx="673.8" cy="528.9" rx="8.8" ry="7.3" id="ellipse5997"/></g><g id="g6003"><ellipse transform="rotate(-31.7 707.25 511.4)" class="st31" cx="707.2" cy="511.4" rx="8.8" ry="7.3" id="ellipse6001"/></g><g id="g6007"><ellipse transform="rotate(-31.7 740.72 493.84)" class="st31" cx="740.7" cy="493.8" rx="8.8" ry="7.3" id="ellipse6005"/></g><g id="g6011"><path class="st31" d="M777 468.7c4.4.7 6.7 4.7 5.1 8.9-1.5 4.2-6.4 7-10.7 6.3-4.4-.7-6.7-4.7-5.1-8.9 1.5-4.2 6.3-7.1 10.7-6.3z" id="path6009"/></g><g id="g6015"><ellipse transform="rotate(-31.7 665.79 550.73)" class="st31" cx="665.8" cy="550.7" rx="8.8" ry="7.3" id="ellipse6013"/></g><g id="g6019"><ellipse transform="rotate(-31.7 699.26 533.17)" class="st31" cx="699.2" cy="533.2" rx="8.8" ry="7.3" id="ellipse6017"/></g><g id="g6023"><ellipse transform="rotate(-31.7 732.74 515.62)" class="st31" cx="732.7" cy="515.6" rx="8.8" ry="7.3" id="ellipse6021"/></g><g id="g6027"><ellipse transform="rotate(-31.7 766.23 498.06)" class="st31" cx="766.2" cy="498" rx="8.8" ry="7.3" id="ellipse6025"/></g><g id="g6031"><ellipse transform="rotate(-31.7 691.28 554.95)" class="st31" cx="691.3" cy="554.9" rx="8.8" ry="7.3" id="ellipse6029"/></g><g id="g6035"><ellipse transform="rotate(-31.7 724.75 537.4)" class="st31" cx="724.7" cy="537.4" rx="8.8" ry="7.3" id="ellipse6033"/></g><g id="g6039"><ellipse transform="rotate(-31.7 758.24 519.84)" class="st31" cx="758.2" cy="519.8" rx="8.8" ry="7.3" id="ellipse6037"/></g><g id="g6043"><ellipse transform="rotate(-31.7 716.76 559.17)" class="st31" cx="716.7" cy="559.1" rx="8.8" ry="7.3" id="ellipse6041"/></g><g id="g6047"><ellipse transform="rotate(-31.7 750.25 541.62)" class="st31" cx="750.2" cy="541.6" rx="8.8" ry="7.3" id="ellipse6045"/></g><g id="g6051"><ellipse transform="rotate(-31.7 742.27 563.4)" class="st31" cx="742.2" cy="563.4" rx="8.8" ry="7.3" id="ellipse6049"/></g></g></g><path class="st15" d="M308.5 512.5a21.66 21.66 0 00-21.6-25.7c-3.7 0-7.3 1-10.7 3l-40.6 21.8c-1.4.7-2.8 1.2-4.3 1.6-4.6 1.3-6.7 6.7-4.4 10.9.6 1.1 1 1.8 1.3 2.2.9 1.4 5.1 11.4 15.6 18.2 1.7 1.1 3.7 1.5 5.6 1.1l21-4c.5-.1 1-.3 1.4-.5l26.3-13.9c5.4-3.1 9.2-8.5 10.4-14.7z" id="path6057"/><path class="st20" id="polygon6059" transform="translate(-267.5 -161.8)" d="M488.4 656.3l-15.2-28.5 12.6-31.5 43.4-4.8-1.7 39.8-26.3 20.5z"/><g id="g6063" transform="translate(-267.5 -161.8)"><path d="M508.5 611.5l6.3 10c1.9 3 2.3 7 .8 11-2.9 7.8-11.8 13.1-19.9 11.7-2.4-.4-4.4-1.3-6-2.6-1.1-.8-2-1.8-2.7-3l-6.3-10c.7 1.1 1.6 2.1 2.7 3 1.6 1.3 3.7 2.2 6 2.6 8.1 1.3 17-3.9 19.9-11.7 1.5-4 1.1-7.9-.8-11z" id="path6061" fill="#8a1838"/></g><g id="g6067" transform="translate(-267.5 -161.8)"><path d="M477.5 633.1c2.3 1.8 5.1 3 8.4 3.6 11.3 1.9 23.6-5.4 27.6-16.2 4-10.8-1.9-21.1-13.2-23-7.6-1.3-15.6 1.6-21.3 6.9a24.81 24.81 0 00-6.3 9.3c-.6 1.8-1 3.5-1.2 5.2-.4 5.7 1.8 10.9 6 14.2z" id="path6065" fill="#e41e37"/></g><path class="st20" d="M213.5 550.3c-3 8.1-12.3 13.6-20.7 12.2-8.5-1.4-12.9-9.2-9.9-17.3 3-8.1 12.3-13.6 20.7-12.2 8.4 1.5 12.8 9.2 9.9 17.3z" id="path6069"/><path class="st15" id="polygon6071" transform="translate(-267.5 -161.8)" d="M542.2 922l-75.8-12.6-27.2-44.6 75.9 12.6z"/><path class="st15" id="polygon6073" transform="translate(-267.5 -161.8)" d="M627.7 936.1l-75.9-12.5-27.1-44.6 75.8 12.5z"/><path class="st15" id="polygon6075" transform="translate(-267.5 -161.8)" d="M713.1 950.3l-75.9-12.6-26.7-43.9 75.8 12.6z"/><g id="g6103" transform="translate(-267.5 -161.8)"><g id="g6085"><g id="g6083"><g id="g6081"><path id="polygon6079" fill="#c6bece" d="M439.2 864.8l75.9 12.6-27.3 81.7-75.6-12z"/></g></g></g><g id="g6093"><g id="g6091"><g id="g6089"><path id="polygon6087" fill="#968f9e" d="M412.2 947.1l11 18 79.2 11.3-14.6-17.3z"/></g></g></g><g id="g6101"><g id="g6099"><g id="g6097"><path id="polygon6095" fill="#6e6975" d="M515.1 877.4l12.3 20.2-25 78.8-14.6-17.3z"/></g></g></g></g><g id="g6109" transform="translate(-267.5 -161.8)"><g id="g6107"><path class="st0" d="M625.1 1453.6c-51.5 0-95.6-13.6-131.1-40.5-39.7-30-66.3-74.7-79.1-132.8-12.2-55.5-11.4-121 2.6-194.6 1.9-10 4.1-20.4 6.5-30.8 6.7-28.7 15.2-58.3 25.5-88.2 1.2-3.6 2.1-4.7 5-4.7 2.7 0 5 1 6.3 2.7.7.9.9 1.9.6 2.8-14.2 41-25.4 82.6-32.6 120.2v.1c-13.7 72.1-14.6 136-2.7 190 12.2 55.3 37.4 97.8 74.8 126.1 33.5 25.3 75.3 38.2 124.3 38.2 5.7 0 11.6-.2 17.4-.5 29-1.7 60.1-7.7 92.3-17.7 5 2.4 10.2 4.8 15.3 7.1-37.5 12.6-73.5 20.1-107 22-6.1.4-12.2.6-18.1.6z" id="path6105"/></g></g><g id="g6115" transform="translate(-267.5 -161.8)"><g id="g6113"><path class="st3" d="M454.5 965.5c2 0 3.1.8 3.4 1.3-14.2 41.1-25.4 82.7-32.6 120.3v.1c-13.8 72.5-14.6 136.9-2.7 191.4 12.4 56.2 38 99.3 76.1 128.1 34.1 25.8 76.6 38.9 126.4 38.9 5.8 0 11.7-.2 17.7-.5 28.9-1.7 59.8-7.6 91.8-17.4 2 .9 4 1.9 6 2.8-34.1 10.8-66.9 17.3-97.5 19.1-6.1.4-12.1.5-18 .5-50.7 0-94.1-13.4-129-39.8-39-29.5-65.2-73.5-77.8-130.7-12.1-55.1-11.2-120.1 2.6-193.2 1.9-10 4.1-20.3 6.5-30.7 6.6-28.5 15.2-58.1 25.4-87.8.4-1.2.7-2 1-2.3.1 0 .3-.1.7-.1m0-7c-5.5 0-7.1 3.6-8.3 7.1-10.3 30-18.9 59.6-25.6 88.5-2.4 10.4-4.6 20.7-6.6 31-14 74-14.9 140-2.6 196 13 58.9 40 104.3 80.4 134.8 36.2 27.4 80.9 41.2 133.2 41.2 6 0 12.2-.2 18.4-.6 35.7-2.1 73.8-10.2 113.8-24.2.9-.3 1-1.6.1-2-7.3-3.2-14.6-6.5-21.8-9.9-.1-.1-.3-.1-.5-.1h-.3c-32.3 10.1-63.2 16.1-92.4 17.8-5.8.3-11.6.5-17.2.5-48.2 0-89.2-12.6-122.1-37.5-36.8-27.8-61.5-69.6-73.5-124.1-11.8-53.6-10.9-117 2.7-188.6v-.1c7.2-38 18.6-79.5 32.4-119.7 1.6-4.4-2.8-10.1-10.1-10.1z" id="path6111"/></g></g></svg>